<svg width="135" height="135" viewBox="0 0 135 135" fill="none" xmlns="http://www.w3.org/2000/svg">
<circle cx="67.5" cy="67.5" r="67.5" fill="#ADE8F4"/>
<path d="M17.6364 77H11.7216V59.5455H17.7557C19.4886 59.5455 20.9773 59.8949 22.2216 60.5938C23.4716 61.2869 24.4318 62.2841 25.1023 63.5852C25.7727 64.8864 26.108 66.4432 26.108 68.2557C26.108 70.0739 25.7699 71.6364 25.0938 72.9432C24.4233 74.25 23.4545 75.2528 22.1875 75.9517C20.9261 76.6506 19.4091 77 17.6364 77ZM14.8835 74.2642H17.483C18.6989 74.2642 19.7131 74.0426 20.5256 73.5994C21.3381 73.1506 21.9489 72.483 22.358 71.5966C22.767 70.7045 22.9716 69.5909 22.9716 68.2557C22.9716 66.9205 22.767 65.8125 22.358 64.9318C21.9489 64.0455 21.3438 63.3835 20.5426 62.946C19.7472 62.5028 18.7585 62.2812 17.5767 62.2812H14.8835V74.2642ZM28.9759 77V63.9091H32.0611V77H28.9759ZM30.527 62.0511C30.0384 62.0511 29.6179 61.8892 29.2656 61.5653C28.9134 61.2358 28.7372 60.8409 28.7372 60.3807C28.7372 59.9148 28.9134 59.5199 29.2656 59.196C29.6179 58.8665 30.0384 58.7017 30.527 58.7017C31.0213 58.7017 31.4418 58.8665 31.7884 59.196C32.1406 59.5199 32.3168 59.9148 32.3168 60.3807C32.3168 60.8409 32.1406 61.2358 31.7884 61.5653C31.4418 61.8892 31.0213 62.0511 30.527 62.0511ZM45.5803 67.3693L42.7678 67.6761C42.6882 67.392 42.549 67.125 42.3501 66.875C42.157 66.625 41.8956 66.4233 41.5661 66.2699C41.2365 66.1165 40.8331 66.0398 40.3558 66.0398C39.7138 66.0398 39.174 66.179 38.7365 66.4574C38.3047 66.7358 38.0916 67.0966 38.0973 67.5398C38.0916 67.9205 38.2308 68.2301 38.5149 68.4688C38.8047 68.7074 39.282 68.9034 39.9467 69.0568L42.1797 69.5341C43.4183 69.8011 44.3388 70.2244 44.9411 70.804C45.549 71.3835 45.8558 72.142 45.8615 73.0795C45.8558 73.9034 45.6143 74.6307 45.1371 75.2614C44.6655 75.8864 44.0092 76.375 43.1683 76.7273C42.3274 77.0795 41.3615 77.2557 40.2706 77.2557C38.6683 77.2557 37.3786 76.9205 36.4013 76.25C35.424 75.5739 34.8416 74.6335 34.6541 73.429L37.6626 73.1392C37.799 73.7301 38.0888 74.1761 38.532 74.4773C38.9751 74.7784 39.5518 74.929 40.2621 74.929C40.995 74.929 41.5831 74.7784 42.0263 74.4773C42.4751 74.1761 42.6996 73.804 42.6996 73.3608C42.6996 72.9858 42.5547 72.6761 42.2649 72.4318C41.9808 72.1875 41.5376 72 40.9354 71.8693L38.7024 71.4006C37.4467 71.1392 36.5178 70.6989 35.9155 70.0795C35.3132 69.4545 35.0149 68.6648 35.0206 67.7102C35.0149 66.9034 35.2337 66.2045 35.6768 65.6136C36.1257 65.017 36.7479 64.5568 37.5433 64.233C38.3445 63.9034 39.2678 63.7386 40.3132 63.7386C41.8473 63.7386 43.0547 64.0653 43.9354 64.7188C44.8217 65.3722 45.37 66.2557 45.5803 67.3693ZM54.1158 77.2557C52.8089 77.2557 51.6868 76.9688 50.7493 76.3949C49.8175 75.821 49.0987 75.0284 48.593 74.017C48.093 73 47.843 71.8295 47.843 70.5057C47.843 69.1761 48.0987 68.0028 48.6101 66.9858C49.1214 65.9631 49.843 65.1676 50.7749 64.5994C51.7124 64.0256 52.8203 63.7386 54.0987 63.7386C55.1612 63.7386 56.1016 63.9347 56.9197 64.3267C57.7436 64.7131 58.3999 65.2614 58.8885 65.9716C59.3771 66.6761 59.6555 67.5 59.7237 68.4432H56.7749C56.6555 67.8125 56.3714 67.2869 55.9226 66.8665C55.4794 66.4403 54.8857 66.2273 54.1413 66.2273C53.5107 66.2273 52.9567 66.3977 52.4794 66.7386C52.0021 67.0739 51.63 67.5568 51.3629 68.1875C51.1016 68.8182 50.9709 69.5739 50.9709 70.4545C50.9709 71.3466 51.1016 72.1136 51.3629 72.7557C51.6243 73.392 51.9908 73.8835 52.4624 74.2301C52.9396 74.571 53.4993 74.7415 54.1413 74.7415C54.5959 74.7415 55.0021 74.6562 55.3601 74.4858C55.7237 74.3097 56.0277 74.0568 56.272 73.7273C56.5163 73.3977 56.6839 72.9972 56.7749 72.5256H59.7237C59.6499 73.4517 59.3771 74.2727 58.9055 74.9886C58.4339 75.6989 57.7919 76.2557 56.9794 76.6591C56.1669 77.0568 55.2124 77.2557 54.1158 77.2557ZM67.9673 77.2557C66.6889 77.2557 65.581 76.9744 64.6435 76.4119C63.706 75.8494 62.9787 75.0625 62.4616 74.0511C61.9503 73.0398 61.6946 71.858 61.6946 70.5057C61.6946 69.1534 61.9503 67.9687 62.4616 66.9517C62.9787 65.9347 63.706 65.1449 64.6435 64.5824C65.581 64.0199 66.6889 63.7386 67.9673 63.7386C69.2457 63.7386 70.3537 64.0199 71.2912 64.5824C72.2287 65.1449 72.9531 65.9347 73.4645 66.9517C73.9815 67.9687 74.2401 69.1534 74.2401 70.5057C74.2401 71.858 73.9815 73.0398 73.4645 74.0511C72.9531 75.0625 72.2287 75.8494 71.2912 76.4119C70.3537 76.9744 69.2457 77.2557 67.9673 77.2557ZM67.9844 74.7841C68.6776 74.7841 69.2571 74.5937 69.723 74.2131C70.1889 73.8267 70.5355 73.3097 70.7628 72.6619C70.9957 72.0142 71.1122 71.2926 71.1122 70.4972C71.1122 69.696 70.9957 68.9716 70.7628 68.3239C70.5355 67.6705 70.1889 67.1506 69.723 66.7642C69.2571 66.3778 68.6776 66.1847 67.9844 66.1847C67.2741 66.1847 66.6832 66.3778 66.2116 66.7642C65.7457 67.1506 65.3963 67.6705 65.1634 68.3239C64.9361 68.9716 64.8224 69.696 64.8224 70.4972C64.8224 71.2926 64.9361 72.0142 65.1634 72.6619C65.3963 73.3097 65.7457 73.8267 66.2116 74.2131C66.6832 74.5937 67.2741 74.7841 67.9844 74.7841ZM88.1065 63.9091L83.4446 77H80.0355L75.3736 63.9091H78.6634L81.6719 73.6335H81.8082L84.8253 63.9091H88.1065ZM95.5916 77.2557C94.2791 77.2557 93.1456 76.983 92.1911 76.4375C91.2422 75.8864 90.5121 75.108 90.0007 74.1023C89.4893 73.0909 89.2337 71.9006 89.2337 70.5312C89.2337 69.1847 89.4893 68.0028 90.0007 66.9858C90.5178 65.9631 91.2393 65.1676 92.1655 64.5994C93.0916 64.0256 94.1797 63.7386 95.4297 63.7386C96.2365 63.7386 96.9979 63.8693 97.7138 64.1307C98.4354 64.3864 99.0717 64.7841 99.6229 65.3239C100.18 65.8636 100.617 66.5511 100.935 67.3864C101.254 68.2159 101.413 69.2045 101.413 70.3523V71.2983H90.6825V69.2188H98.4553C98.4496 68.6278 98.3217 68.1023 98.0717 67.642C97.8217 67.1761 97.4723 66.8097 97.0234 66.5426C96.5803 66.2756 96.0632 66.142 95.4723 66.142C94.8416 66.142 94.2876 66.2955 93.8104 66.6023C93.3331 66.9034 92.9609 67.3011 92.6939 67.7955C92.4325 68.2841 92.299 68.821 92.2933 69.4062V71.2216C92.2933 71.983 92.4325 72.6364 92.7109 73.1818C92.9893 73.7216 93.3786 74.1364 93.8786 74.4261C94.3786 74.7102 94.9638 74.8523 95.6342 74.8523C96.0831 74.8523 96.4893 74.7898 96.853 74.6648C97.2166 74.5341 97.532 74.3438 97.799 74.0938C98.0661 73.8438 98.2678 73.5341 98.4041 73.1648L101.285 73.4886C101.103 74.25 100.756 74.9148 100.245 75.483C99.7393 76.0455 99.0916 76.483 98.3018 76.7955C97.5121 77.1023 96.6087 77.2557 95.5916 77.2557ZM104.023 77V63.9091H107.014V66.0909H107.151C107.389 65.3352 107.798 64.7528 108.378 64.3438C108.963 63.929 109.631 63.7216 110.381 63.7216C110.551 63.7216 110.741 63.7301 110.952 63.7472C111.168 63.7585 111.347 63.7784 111.489 63.8068V66.6449C111.358 66.5994 111.151 66.5597 110.866 66.5256C110.588 66.4858 110.318 66.4659 110.057 66.4659C109.494 66.4659 108.989 66.5881 108.54 66.8324C108.097 67.071 107.747 67.4034 107.491 67.8295C107.236 68.2557 107.108 68.7472 107.108 69.304V77H104.023ZM115.854 81.9091C115.434 81.9091 115.045 81.875 114.687 81.8068C114.335 81.7443 114.053 81.6705 113.843 81.5852L114.559 79.1818C115.008 79.3125 115.408 79.375 115.761 79.3693C116.113 79.3636 116.423 79.2528 116.69 79.0369C116.962 78.8267 117.192 78.4744 117.38 77.9801L117.644 77.2727L112.897 63.9091H116.17L119.187 73.7955H119.323L122.349 63.9091H125.63L120.388 78.5852C120.144 79.2784 119.82 79.8722 119.417 80.3665C119.013 80.8665 118.519 81.2472 117.934 81.5085C117.354 81.7756 116.661 81.9091 115.854 81.9091Z" fill="white"/>
</svg>
