<svg width="135" height="135" viewBox="0 0 135 135" fill="none" xmlns="http://www.w3.org/2000/svg">
<circle cx="67.5" cy="67.5" r="67.5" fill="#90E0EF"/>
<path d="M43.0127 63V47H53.4189V49.4297H45.9111V53.7734H52.8799V56.2031H45.9111V60.5703H53.4814V63H43.0127ZM59.7041 63.2422C58.9437 63.2422 58.2588 63.1068 57.6494 62.8359C57.0452 62.5599 56.5661 62.1536 56.2119 61.6172C55.863 61.0807 55.6885 60.4193 55.6885 59.6328C55.6885 58.9557 55.8135 58.3958 56.0635 57.9531C56.3135 57.5104 56.6546 57.1562 57.0869 56.8906C57.5192 56.625 58.0062 56.4245 58.5479 56.2891C59.0947 56.1484 59.6598 56.0469 60.2432 55.9844C60.9463 55.9115 61.5166 55.8464 61.9541 55.7891C62.3916 55.7266 62.7093 55.6328 62.9072 55.5078C63.1104 55.3776 63.2119 55.1771 63.2119 54.9062V54.8594C63.2119 54.2708 63.0374 53.8151 62.6885 53.4922C62.3395 53.1693 61.8369 53.0078 61.1807 53.0078C60.488 53.0078 59.9385 53.1589 59.5322 53.4609C59.1312 53.763 58.8604 54.1198 58.7197 54.5312L56.0791 54.1562C56.2874 53.4271 56.6312 52.8177 57.1104 52.3281C57.5895 51.8333 58.1755 51.4635 58.8682 51.2187C59.5609 50.9688 60.3265 50.8438 61.165 50.8438C61.7432 50.8438 62.3187 50.9115 62.8916 51.0469C63.4645 51.1823 63.988 51.4062 64.4619 51.7187C64.9359 52.026 65.3161 52.4453 65.6025 52.9766C65.8942 53.5078 66.04 54.1719 66.04 54.9687V63H63.3213V61.3516H63.2275C63.0557 61.6849 62.8135 61.9974 62.501 62.2891C62.1937 62.5755 61.8057 62.8073 61.3369 62.9844C60.8734 63.1563 60.3291 63.2422 59.7041 63.2422ZM60.4385 61.1641C61.0062 61.1641 61.4984 61.0521 61.915 60.8281C62.3317 60.599 62.652 60.2969 62.876 59.9219C63.1051 59.5469 63.2197 59.138 63.2197 58.6953V57.2812C63.1312 57.3542 62.9801 57.4219 62.7666 57.4844C62.5583 57.5469 62.3239 57.6016 62.0635 57.6484C61.8031 57.6953 61.5452 57.737 61.29 57.7734C61.0348 57.8099 60.8135 57.8411 60.626 57.8672C60.2041 57.9245 59.8265 58.0182 59.4932 58.1484C59.1598 58.2786 58.8968 58.4609 58.7041 58.6953C58.5114 58.9245 58.415 59.2214 58.415 59.5859C58.415 60.1068 58.6051 60.5 58.9854 60.7656C59.3656 61.0312 59.8499 61.1641 60.4385 61.1641ZM68.8838 63V51H71.626V53H71.751C71.9697 52.3073 72.3447 51.7734 72.876 51.3984C73.4124 51.0182 74.0244 50.8281 74.7119 50.8281C74.8682 50.8281 75.0426 50.8359 75.2354 50.8516C75.4333 50.862 75.5973 50.8802 75.7275 50.9062V53.5078C75.6077 53.4661 75.4176 53.4297 75.1572 53.3984C74.902 53.362 74.6546 53.3437 74.415 53.3437C73.8994 53.3437 73.4359 53.4557 73.0244 53.6797C72.6182 53.8984 72.2979 54.2031 72.0635 54.5937C71.8291 54.9844 71.7119 55.4349 71.7119 55.9453V63H68.8838ZM80.4346 47V63H77.6064V47H80.4346ZM85.1006 67.5C84.7152 67.5 84.3584 67.4688 84.0303 67.4063C83.7074 67.349 83.4495 67.2813 83.2568 67.2031L83.9131 65C84.3245 65.1198 84.6917 65.1771 85.0146 65.1719C85.3376 65.1667 85.6214 65.0651 85.8662 64.8672C86.1162 64.6745 86.3271 64.3516 86.499 63.8984L86.7412 63.25L82.3896 51H85.3896L88.1553 60.0625H88.2803L91.0537 51H94.0615L89.2568 64.4531C89.0329 65.0885 88.736 65.6328 88.3662 66.0859C87.9964 66.5443 87.5433 66.8932 87.0068 67.1328C86.4756 67.3776 85.8402 67.5 85.1006 67.5ZM14.6748 90V74H20.6748C21.904 74 22.9352 74.2292 23.7686 74.6875C24.6071 75.1458 25.2399 75.776 25.667 76.5781C26.0993 77.375 26.3154 78.2812 26.3154 79.2969C26.3154 80.3229 26.0993 81.2344 25.667 82.0313C25.2347 82.8281 24.5967 83.4557 23.7529 83.9141C22.9092 84.3672 21.8701 84.5937 20.6357 84.5937H16.6592V82.2109H20.2451C20.9639 82.2109 21.5524 82.0859 22.0107 81.8359C22.4691 81.5859 22.8076 81.2422 23.0264 80.8047C23.2503 80.3672 23.3623 79.8646 23.3623 79.2969C23.3623 78.7292 23.2503 78.2292 23.0264 77.7969C22.8076 77.3646 22.4665 77.0286 22.0029 76.7891C21.5446 76.5443 20.9535 76.4219 20.2295 76.4219H17.5732V90H14.6748ZM28.708 90V78H31.4502V80H31.5752C31.7939 79.3073 32.1689 78.7734 32.7002 78.3984C33.2367 78.0182 33.8486 77.8281 34.5361 77.8281C34.6924 77.8281 34.8669 77.8359 35.0596 77.8516C35.2575 77.862 35.4215 77.8802 35.5518 77.9062V80.5078C35.432 80.4661 35.2419 80.4297 34.9814 80.3984C34.7262 80.362 34.4788 80.3437 34.2393 80.3437C33.7236 80.3437 33.2601 80.4557 32.8486 80.6797C32.4424 80.8984 32.1221 81.2031 31.8877 81.5937C31.6533 81.9844 31.5361 82.4349 31.5361 82.9453V90H28.708ZM42.249 90.2344C41.0459 90.2344 40.0068 89.9844 39.1318 89.4844C38.262 88.9792 37.5928 88.2656 37.124 87.3437C36.6553 86.4167 36.4209 85.3255 36.4209 84.0703C36.4209 82.8359 36.6553 81.7526 37.124 80.8203C37.598 79.8828 38.2594 79.1536 39.1084 78.6328C39.9574 78.1068 40.9548 77.8438 42.1006 77.8438C42.8402 77.8438 43.5381 77.9635 44.1943 78.2031C44.8558 78.4375 45.4391 78.8021 45.9443 79.2969C46.4548 79.7917 46.8558 80.4219 47.1475 81.1875C47.4391 81.9479 47.585 82.8542 47.585 83.9062V84.7734H37.749V82.8672H44.874C44.8688 82.3255 44.7516 81.8437 44.5225 81.4219C44.2933 80.9948 43.973 80.6589 43.5615 80.4141C43.1553 80.1693 42.6813 80.0469 42.1396 80.0469C41.5615 80.0469 41.0537 80.1875 40.6162 80.4687C40.1787 80.7448 39.8376 81.1094 39.5928 81.5625C39.3532 82.0104 39.2308 82.5026 39.2256 83.0391V84.7031C39.2256 85.401 39.3532 86 39.6084 86.5C39.8636 86.9948 40.2204 87.375 40.6787 87.6406C41.137 87.901 41.6735 88.0312 42.2881 88.0312C42.6995 88.0312 43.0719 87.974 43.4053 87.8594C43.7386 87.7396 44.0277 87.5651 44.2725 87.3359C44.5173 87.1068 44.7021 86.8229 44.8271 86.4844L47.4678 86.7812C47.3011 87.4792 46.9834 88.0885 46.5146 88.6094C46.0511 89.125 45.4574 89.526 44.7334 89.8125C44.0094 90.0937 43.1813 90.2344 42.249 90.2344ZM55.2119 90.2344C54.014 90.2344 52.9854 89.9714 52.126 89.4453C51.2718 88.9193 50.613 88.1927 50.1494 87.2656C49.6911 86.3333 49.4619 85.2604 49.4619 84.0469C49.4619 82.8281 49.6963 81.7526 50.165 80.8203C50.6338 79.8828 51.2952 79.1536 52.1494 78.6328C53.0088 78.1068 54.0244 77.8438 55.1963 77.8438C56.1702 77.8438 57.0322 78.0234 57.7822 78.3828C58.5374 78.737 59.139 79.2396 59.5869 79.8906C60.0348 80.5365 60.29 81.2917 60.3525 82.1562H57.6494C57.54 81.5781 57.2796 81.0964 56.8682 80.7109C56.4619 80.3203 55.9176 80.125 55.2354 80.125C54.6572 80.125 54.1494 80.2812 53.7119 80.5937C53.2744 80.901 52.9333 81.3437 52.6885 81.9219C52.4489 82.5 52.3291 83.1927 52.3291 84C52.3291 84.8177 52.4489 85.5208 52.6885 86.1094C52.9281 86.6927 53.264 87.1432 53.6963 87.4609C54.1338 87.7734 54.6468 87.9297 55.2354 87.9297C55.652 87.9297 56.0244 87.8516 56.3525 87.6953C56.6859 87.5339 56.9645 87.3021 57.1885 87C57.4124 86.6979 57.5661 86.3307 57.6494 85.8984H60.3525C60.2848 86.7474 60.0348 87.5 59.6025 88.1562C59.1702 88.8073 58.5817 89.3177 57.8369 89.6875C57.0921 90.0521 56.2171 90.2344 55.2119 90.2344ZM65.5029 74V90H62.6748V74H65.5029ZM68.4111 90V78H71.2393V90H68.4111ZM69.833 76.2969C69.3851 76.2969 68.9997 76.1484 68.6768 75.8516C68.3538 75.5495 68.1924 75.1875 68.1924 74.7656C68.1924 74.3385 68.3538 73.9766 68.6768 73.6797C68.9997 73.3776 69.3851 73.2266 69.833 73.2266C70.2861 73.2266 70.6715 73.3776 70.9893 73.6797C71.3122 73.9766 71.4736 74.3385 71.4736 74.7656C71.4736 75.1875 71.3122 75.5495 70.9893 75.8516C70.6715 76.1484 70.2861 76.2969 69.833 76.2969ZM76.9756 82.9687V90H74.1475V78H76.8506V80.0391H76.9912C77.2673 79.3672 77.7074 78.8333 78.3115 78.4375C78.9209 78.0417 79.6735 77.8438 80.5693 77.8438C81.3975 77.8438 82.1188 78.0208 82.7334 78.375C83.3532 78.7292 83.8324 79.2422 84.1709 79.9141C84.5146 80.5859 84.6839 81.401 84.6787 82.3594V90H81.8506V82.7969C81.8506 81.9948 81.6423 81.3672 81.2256 80.9141C80.8141 80.4609 80.2438 80.2344 79.5146 80.2344C79.0199 80.2344 78.5798 80.3437 78.1943 80.5625C77.8141 80.776 77.5146 81.0859 77.2959 81.4922C77.0824 81.8984 76.9756 82.3906 76.9756 82.9687ZM87.5537 90V78H90.3818V90H87.5537ZM88.9756 76.2969C88.5277 76.2969 88.1423 76.1484 87.8193 75.8516C87.4964 75.5495 87.335 75.1875 87.335 74.7656C87.335 74.3385 87.4964 73.9766 87.8193 73.6797C88.1423 73.3776 88.5277 73.2266 88.9756 73.2266C89.4287 73.2266 89.8141 73.3776 90.1318 73.6797C90.4548 73.9766 90.6162 74.3385 90.6162 74.7656C90.6162 75.1875 90.4548 75.5495 90.1318 75.8516C89.8141 76.1484 89.4287 76.2969 88.9756 76.2969ZM98.5244 90.2344C97.3265 90.2344 96.2979 89.9714 95.4385 89.4453C94.5843 88.9193 93.9255 88.1927 93.4619 87.2656C93.0036 86.3333 92.7744 85.2604 92.7744 84.0469C92.7744 82.8281 93.0088 81.7526 93.4775 80.8203C93.9463 79.8828 94.6077 79.1536 95.4619 78.6328C96.3213 78.1068 97.3369 77.8438 98.5088 77.8438C99.4827 77.8438 100.345 78.0234 101.095 78.3828C101.85 78.737 102.451 79.2396 102.899 79.8906C103.347 80.5365 103.603 81.2917 103.665 82.1562H100.962C100.853 81.5781 100.592 81.0964 100.181 80.7109C99.7744 80.3203 99.2301 80.125 98.5479 80.125C97.9697 80.125 97.4619 80.2812 97.0244 80.5937C96.5869 80.901 96.2458 81.3437 96.001 81.9219C95.7614 82.5 95.6416 83.1927 95.6416 84C95.6416 84.8177 95.7614 85.5208 96.001 86.1094C96.2406 86.6927 96.5765 87.1432 97.0088 87.4609C97.4463 87.7734 97.9593 87.9297 98.5479 87.9297C98.9645 87.9297 99.3369 87.8516 99.665 87.6953C99.9984 87.5339 100.277 87.3021 100.501 87C100.725 86.6979 100.879 86.3307 100.962 85.8984H103.665C103.597 86.7474 103.347 87.5 102.915 88.1562C102.483 88.8073 101.894 89.3177 101.149 89.6875C100.405 90.0521 99.5296 90.2344 98.5244 90.2344ZM109.44 90.2422C108.68 90.2422 107.995 90.1068 107.386 89.8359C106.782 89.5599 106.302 89.1536 105.948 88.6172C105.599 88.0807 105.425 87.4193 105.425 86.6328C105.425 85.9557 105.55 85.3958 105.8 84.9531C106.05 84.5104 106.391 84.1562 106.823 83.8906C107.256 83.625 107.743 83.4245 108.284 83.2891C108.831 83.1484 109.396 83.0469 109.979 82.9844C110.683 82.9115 111.253 82.8464 111.69 82.7891C112.128 82.7266 112.446 82.6328 112.644 82.5078C112.847 82.3776 112.948 82.1771 112.948 81.9062V81.8594C112.948 81.2708 112.774 80.8151 112.425 80.4922C112.076 80.1693 111.573 80.0078 110.917 80.0078C110.224 80.0078 109.675 80.1589 109.269 80.4609C108.868 80.763 108.597 81.1198 108.456 81.5312L105.815 81.1562C106.024 80.4271 106.368 79.8177 106.847 79.3281C107.326 78.8333 107.912 78.4635 108.604 78.2187C109.297 77.9688 110.063 77.8438 110.901 77.8438C111.479 77.8438 112.055 77.9115 112.628 78.0469C113.201 78.1823 113.724 78.4062 114.198 78.7187C114.672 79.026 115.052 79.4453 115.339 79.9766C115.631 80.5078 115.776 81.1719 115.776 81.9687V90H113.058V88.3516H112.964C112.792 88.6849 112.55 88.9974 112.237 89.2891C111.93 89.5755 111.542 89.8073 111.073 89.9844C110.61 90.1563 110.065 90.2422 109.44 90.2422ZM110.175 88.1641C110.743 88.1641 111.235 88.0521 111.651 87.8281C112.068 87.599 112.388 87.2969 112.612 86.9219C112.841 86.5469 112.956 86.138 112.956 85.6953V84.2812C112.868 84.3542 112.716 84.4219 112.503 84.4844C112.295 84.5469 112.06 84.6016 111.8 84.6484C111.539 84.6953 111.282 84.737 111.026 84.7734C110.771 84.8099 110.55 84.8411 110.362 84.8672C109.94 84.9245 109.563 85.0182 109.229 85.1484C108.896 85.2786 108.633 85.4609 108.44 85.6953C108.248 85.9245 108.151 86.2214 108.151 86.5859C108.151 87.1068 108.341 87.5 108.722 87.7656C109.102 88.0312 109.586 88.1641 110.175 88.1641ZM121.448 74V90H118.62V74H121.448Z" fill="white"/>
</svg>
