<svg width="135" height="135" viewBox="0 0 135 135" fill="none" xmlns="http://www.w3.org/2000/svg">
<circle cx="67.5" cy="67.5" r="67.5" fill="#00B4D8"/>
<path d="M47.9849 63V48.4545H51.0602V60.4645H57.296V63H47.9849ZM62.3865 63.206C61.6905 63.206 61.0703 63.0852 60.5257 62.8438C59.9812 62.5975 59.5504 62.2353 59.2331 61.7571C58.9206 61.2741 58.7644 60.6728 58.7644 59.9531C58.7644 59.3471 58.8757 58.8381 59.0982 58.4261C59.3207 58.0142 59.6238 57.6828 60.0073 57.4318C60.3908 57.1809 60.8264 56.9915 61.3141 56.8636C61.8065 56.7358 62.3226 56.6458 62.8624 56.5938C63.4969 56.5275 64.0082 56.4659 64.3965 56.4091C64.7847 56.3475 65.0665 56.2576 65.2417 56.1392C65.4168 56.0208 65.5044 55.8456 65.5044 55.6136V55.571C65.5044 55.1212 65.3624 54.7732 65.0783 54.527C64.7989 54.2808 64.4012 54.1577 63.8851 54.1577C63.3406 54.1577 62.9074 54.2784 62.5854 54.5199C62.2634 54.7566 62.0504 55.0549 61.9462 55.4148L59.1479 55.1875C59.29 54.5246 59.5693 53.9517 59.986 53.4688C60.4026 52.9811 60.94 52.607 61.5982 52.3466C62.2611 52.0814 63.0281 51.9489 63.8993 51.9489C64.5054 51.9489 65.0854 52.0199 65.6394 52.1619C66.1981 52.304 66.6929 52.5241 67.1238 52.8224C67.5594 53.1207 67.9026 53.5043 68.1536 53.973C68.4045 54.437 68.53 54.9934 68.53 55.642V63H65.6607V61.4872H65.5755C65.4003 61.8281 65.1659 62.1288 64.8723 62.3892C64.5788 62.6449 64.226 62.8461 63.8141 62.9929C63.4022 63.1349 62.9263 63.206 62.3865 63.206ZM63.253 61.1179C63.6981 61.1179 64.0911 61.0303 64.432 60.8551C64.7729 60.6752 65.0404 60.4337 65.2346 60.1307C65.4287 59.8277 65.5257 59.4844 65.5257 59.1009V57.9432C65.431 58.0047 65.3008 58.0616 65.1351 58.1136C64.9741 58.161 64.7918 58.206 64.5882 58.2486C64.3846 58.2865 64.181 58.322 63.9775 58.3551C63.7739 58.3835 63.5892 58.4096 63.4235 58.4332C63.0684 58.4853 62.7582 58.5682 62.4931 58.6818C62.2279 58.7955 62.022 58.9493 61.8752 59.1435C61.7284 59.3329 61.655 59.5696 61.655 59.8537C61.655 60.2656 61.8042 60.5805 62.1025 60.7983C62.4055 61.0114 62.789 61.1179 63.253 61.1179ZM76.6799 52.0909V54.3636H70.1103V52.0909H76.6799ZM71.6017 49.4773H74.6273V59.6477C74.6273 59.9271 74.6699 60.1449 74.7551 60.3011C74.8404 60.4527 74.9587 60.5592 75.1103 60.6207C75.2665 60.6823 75.4464 60.7131 75.65 60.7131C75.7921 60.7131 75.9341 60.7012 76.0762 60.6776C76.2182 60.6491 76.3271 60.6278 76.4029 60.6136L76.8787 62.8651C76.7272 62.9124 76.5141 62.9669 76.2395 63.0284C75.9649 63.0947 75.6311 63.1349 75.2381 63.1491C74.5089 63.1776 73.8697 63.0805 73.3205 62.858C72.776 62.6354 72.3522 62.2898 72.0492 61.821C71.7462 61.3523 71.597 60.7604 71.6017 60.0455V49.4773ZM83.5051 63.2131C82.383 63.2131 81.4171 62.9858 80.6074 62.5312C79.8025 62.072 79.1822 61.4233 78.7466 60.5852C78.311 59.7424 78.0932 58.7457 78.0932 57.5952C78.0932 56.473 78.311 55.4882 78.7466 54.6406C79.1822 53.7931 79.7954 53.1326 80.5861 52.6591C81.3816 52.1856 82.3143 51.9489 83.3844 51.9489C84.1041 51.9489 84.7741 52.0649 85.3944 52.2969C86.0194 52.5241 86.5639 52.8674 87.0279 53.3267C87.4966 53.786 87.8612 54.3636 88.1216 55.0597C88.382 55.7509 88.5123 56.5606 88.5123 57.4886V58.3196H79.3006V56.4446H85.6642C85.6642 56.009 85.5695 55.6231 85.3801 55.2869C85.1908 54.9508 84.928 54.688 84.5918 54.4986C84.2604 54.3045 83.8745 54.2074 83.4341 54.2074C82.9748 54.2074 82.5676 54.3139 82.2125 54.527C81.8622 54.7353 81.5875 55.017 81.3887 55.3722C81.1898 55.7225 81.088 56.1132 81.0833 56.544V58.3267C81.0833 58.8665 81.1827 59.3329 81.3816 59.7259C81.5852 60.1188 81.8716 60.4219 82.2409 60.6349C82.6103 60.848 83.0482 60.9545 83.5549 60.9545C83.891 60.9545 84.1988 60.9072 84.4782 60.8125C84.7575 60.7178 84.9966 60.5758 85.1955 60.3864C85.3944 60.197 85.5459 59.965 85.65 59.6903L88.4483 59.875C88.3063 60.5473 88.0151 61.1345 87.5748 61.6364C87.1391 62.1335 86.5757 62.5218 85.8844 62.8011C85.1979 63.0758 84.4048 63.2131 83.5051 63.2131ZM7.53569 87V72.4545H13.2743C14.3775 72.4545 15.3174 72.6652 16.0939 73.0866C16.8704 73.5033 17.4623 74.0833 17.8695 74.8267C18.2814 75.5653 18.4874 76.4176 18.4874 77.3835C18.4874 78.3494 18.2791 79.2017 17.8624 79.9403C17.4457 80.679 16.842 81.2543 16.0513 81.6662C15.2653 82.0781 14.3136 82.2841 13.1962 82.2841H9.53853V79.8196H12.699C13.2909 79.8196 13.7786 79.7178 14.1621 79.5142C14.5504 79.3059 14.8392 79.0194 15.0286 78.6548C15.2227 78.2855 15.3198 77.8617 15.3198 77.3835C15.3198 76.9006 15.2227 76.4792 15.0286 76.1193C14.8392 75.7547 14.5504 75.473 14.1621 75.2741C13.7739 75.0705 13.2814 74.9688 12.6848 74.9688H10.611V87H7.53569ZM20.4281 87V76.0909H23.3613V77.9943H23.475C23.6738 77.3172 24.0076 76.8059 24.4764 76.4602C24.9451 76.1098 25.4849 75.9347 26.0957 75.9347C26.2472 75.9347 26.4106 75.9441 26.5858 75.9631C26.7609 75.982 26.9148 76.008 27.0474 76.0412V78.7259C26.9054 78.6832 26.7089 78.6454 26.4579 78.6122C26.207 78.5791 25.9773 78.5625 25.769 78.5625C25.3239 78.5625 24.9262 78.6596 24.5758 78.8537C24.2302 79.0431 23.9556 79.3082 23.752 79.6491C23.5531 79.9901 23.4537 80.383 23.4537 80.8281V87H20.4281ZM33.0755 87.2131C31.9533 87.2131 30.9874 86.9858 30.1777 86.5312C29.3728 86.072 28.7525 85.4233 28.3169 84.5852C27.8813 83.7424 27.6635 82.7457 27.6635 81.5952C27.6635 80.473 27.8813 79.4882 28.3169 78.6406C28.7525 77.7931 29.3657 77.1326 30.1564 76.6591C30.9519 76.1856 31.8846 75.9489 32.9547 75.9489C33.6744 75.9489 34.3444 76.0649 34.9647 76.2969C35.5897 76.5241 36.1342 76.8674 36.5982 77.3267C37.0669 77.786 37.4315 78.3636 37.6919 79.0597C37.9524 79.7509 38.0826 80.5606 38.0826 81.4886V82.3196H28.8709V80.4446H35.2346C35.2346 80.009 35.1399 79.6231 34.9505 79.2869C34.7611 78.9508 34.4983 78.688 34.1621 78.4986C33.8307 78.3045 33.4448 78.2074 33.0044 78.2074C32.5452 78.2074 32.138 78.3139 31.7828 78.527C31.4325 78.7353 31.1578 79.017 30.959 79.3722C30.7601 79.7225 30.6583 80.1132 30.6536 80.544V82.3267C30.6536 82.8665 30.753 83.3329 30.9519 83.7259C31.1555 84.1188 31.4419 84.4219 31.8113 84.6349C32.1806 84.848 32.6185 84.9545 33.1252 84.9545C33.4614 84.9545 33.7691 84.9072 34.0485 84.8125C34.3278 84.7178 34.5669 84.5758 34.7658 84.3864C34.9647 84.197 35.1162 83.965 35.2203 83.6903L38.0186 83.875C37.8766 84.5473 37.5854 85.1345 37.1451 85.6364C36.7095 86.1335 36.146 86.5218 35.4547 86.8011C34.7682 87.0758 33.9751 87.2131 33.0755 87.2131ZM44.986 87.2131C43.8685 87.2131 42.9074 86.9763 42.1025 86.5028C41.3023 86.0246 40.6867 85.3617 40.2559 84.5142C39.8297 83.6667 39.6167 82.6913 39.6167 81.5881C39.6167 80.4706 39.8321 79.4905 40.263 78.6477C40.6986 77.8002 41.3165 77.1397 42.1167 76.6662C42.9168 76.188 43.8685 75.9489 44.9718 75.9489C45.9235 75.9489 46.7568 76.1217 47.4718 76.4673C48.1867 76.813 48.7525 77.2983 49.1692 77.9233C49.5859 78.5483 49.8155 79.2822 49.8581 80.125H47.003C46.9225 79.5805 46.7095 79.1425 46.3638 78.8111C46.0229 78.4749 45.5755 78.3068 45.0215 78.3068C44.5527 78.3068 44.1432 78.4347 43.7928 78.6903C43.4471 78.9413 43.1773 79.3082 42.9831 79.7912C42.789 80.2741 42.6919 80.8589 42.6919 81.5455C42.6919 82.2415 42.7866 82.8333 42.976 83.321C43.1702 83.8087 43.4424 84.1804 43.7928 84.4361C44.1432 84.6918 44.5527 84.8196 45.0215 84.8196C45.3671 84.8196 45.6773 84.7486 45.9519 84.6065C46.2312 84.4645 46.4609 84.2585 46.6408 83.9886C46.8255 83.714 46.9462 83.3849 47.003 83.0014H49.8581C49.8108 83.8348 49.5835 84.5687 49.1763 85.2031C48.7739 85.8329 48.2175 86.3253 47.5073 86.6804C46.7971 87.0355 45.9566 87.2131 44.986 87.2131ZM54.8208 72.4545V87H51.7953V72.4545H54.8208ZM57.2445 87V76.0909H60.2701V87H57.2445ZM58.7644 74.6847C58.3146 74.6847 57.9287 74.5355 57.6067 74.2372C57.2895 73.9342 57.1309 73.572 57.1309 73.1506C57.1309 72.7339 57.2895 72.3764 57.6067 72.0781C57.9287 71.7751 58.3146 71.6236 58.7644 71.6236C59.2142 71.6236 59.5977 71.7751 59.915 72.0781C60.2369 72.3764 60.3979 72.7339 60.3979 73.1506C60.3979 73.572 60.2369 73.9342 59.915 74.2372C59.5977 74.5355 59.2142 74.6847 58.7644 74.6847ZM65.7193 80.6932V87H62.6937V76.0909H65.5772V78.0156H65.7051C65.9466 77.3812 66.3514 76.8793 66.9196 76.5099C67.4877 76.1359 68.1767 75.9489 68.9863 75.9489C69.7439 75.9489 70.4044 76.1146 70.9679 76.446C71.5313 76.7775 71.9693 77.2509 72.2818 77.8665C72.5943 78.4773 72.7505 79.2064 72.7505 80.054V87H69.725V80.5938C69.7297 79.9261 69.5592 79.4053 69.2136 79.0312C68.868 78.6525 68.3921 78.4631 67.786 78.4631C67.3788 78.4631 67.019 78.5507 66.7065 78.7259C66.3987 78.901 66.1573 79.1567 65.9821 79.4929C65.8116 79.8243 65.724 80.2244 65.7193 80.6932ZM75.1351 87V76.0909H78.1607V87H75.1351ZM76.655 74.6847C76.2052 74.6847 75.8193 74.5355 75.4973 74.2372C75.1801 73.9342 75.0215 73.572 75.0215 73.1506C75.0215 72.7339 75.1801 72.3764 75.4973 72.0781C75.8193 71.7751 76.2052 71.6236 76.655 71.6236C77.1048 71.6236 77.4883 71.7751 77.8056 72.0781C78.1275 72.3764 78.2885 72.7339 78.2885 73.1506C78.2885 73.572 78.1275 73.9342 77.8056 74.2372C77.4883 74.5355 77.1048 74.6847 76.655 74.6847ZM85.5133 87.2131C84.3959 87.2131 83.4347 86.9763 82.6298 86.5028C81.8296 86.0246 81.2141 85.3617 80.7832 84.5142C80.3571 83.6667 80.144 82.6913 80.144 81.5881C80.144 80.4706 80.3594 79.4905 80.7903 78.6477C81.2259 77.8002 81.8438 77.1397 82.644 76.6662C83.4442 76.188 84.3959 75.9489 85.4991 75.9489C86.4508 75.9489 87.2842 76.1217 87.9991 76.4673C88.7141 76.813 89.2799 77.2983 89.6966 77.9233C90.1132 78.5483 90.3429 79.2822 90.3855 80.125H87.5304C87.4499 79.5805 87.2368 79.1425 86.8912 78.8111C86.5502 78.4749 86.1028 78.3068 85.5488 78.3068C85.0801 78.3068 84.6705 78.4347 84.3201 78.6903C83.9745 78.9413 83.7046 79.3082 83.5105 79.7912C83.3163 80.2741 83.2193 80.8589 83.2193 81.5455C83.2193 82.2415 83.314 82.8333 83.5034 83.321C83.6975 83.8087 83.9698 84.1804 84.3201 84.4361C84.6705 84.6918 85.0801 84.8196 85.5488 84.8196C85.8945 84.8196 86.2046 84.7486 86.4792 84.6065C86.7586 84.4645 86.9882 84.2585 87.1681 83.9886C87.3528 83.714 87.4735 83.3849 87.5304 83.0014H90.3855C90.3381 83.8348 90.1109 84.5687 89.7037 85.2031C89.3012 85.8329 88.7449 86.3253 88.0346 86.6804C87.3244 87.0355 86.484 87.2131 85.5133 87.2131ZM95.4334 87.206C94.7374 87.206 94.1171 87.0852 93.5726 86.8438C93.0281 86.5975 92.5972 86.2353 92.28 85.7571C91.9675 85.2741 91.8113 84.6728 91.8113 83.9531C91.8113 83.3471 91.9225 82.8381 92.1451 82.4261C92.3676 82.0142 92.6706 81.6828 93.0542 81.4318C93.4377 81.1809 93.8733 80.9915 94.361 80.8636C94.8534 80.7358 95.3695 80.6458 95.9093 80.5938C96.5437 80.5275 97.0551 80.4659 97.4434 80.4091C97.8316 80.3475 98.1133 80.2576 98.2885 80.1392C98.4637 80.0208 98.5513 79.8456 98.5513 79.6136V79.571C98.5513 79.1212 98.4093 78.7732 98.1252 78.527C97.8458 78.2808 97.4481 78.1577 96.932 78.1577C96.3875 78.1577 95.9542 78.2784 95.6323 78.5199C95.3103 78.7566 95.0972 79.0549 94.9931 79.4148L92.1948 79.1875C92.3368 78.5246 92.6162 77.9517 93.0328 77.4688C93.4495 76.9811 93.9869 76.607 94.6451 76.3466C95.3079 76.0814 96.075 75.9489 96.9462 75.9489C97.5523 75.9489 98.1323 76.0199 98.6863 76.1619C99.245 76.304 99.7398 76.5241 100.171 76.8224C100.606 77.1207 100.95 77.5043 101.2 77.973C101.451 78.437 101.577 78.9934 101.577 79.642V87H98.7076V85.4872H98.6223C98.4471 85.8281 98.2128 86.1288 97.9192 86.3892C97.6257 86.6449 97.2729 86.8461 96.861 86.9929C96.449 87.1349 95.9732 87.206 95.4334 87.206ZM96.2999 85.1179C96.745 85.1179 97.138 85.0303 97.4789 84.8551C97.8198 84.6752 98.0873 84.4337 98.2814 84.1307C98.4756 83.8277 98.5726 83.4844 98.5726 83.1009V81.9432C98.4779 82.0047 98.3477 82.0616 98.182 82.1136C98.021 82.161 97.8387 82.206 97.6351 82.2486C97.4315 82.2865 97.2279 82.322 97.0243 82.3551C96.8207 82.3835 96.6361 82.4096 96.4703 82.4332C96.1152 82.4853 95.8051 82.5682 95.54 82.6818C95.2748 82.7955 95.0688 82.9493 94.9221 83.1435C94.7753 83.3329 94.7019 83.5696 94.7019 83.8537C94.7019 84.2656 94.851 84.5805 95.1493 84.7983C95.4524 85.0114 95.8359 85.1179 96.2999 85.1179ZM106.95 72.4545V87H103.924V72.4545H106.95ZM116.17 79.8267V82.2273H109.537V79.8267H116.17ZM118.31 87V84.7841L123.487 79.9901C123.928 79.5639 124.297 79.1804 124.595 78.8395C124.898 78.4986 125.128 78.1648 125.284 77.8381C125.441 77.5066 125.519 77.1491 125.519 76.7656C125.519 76.3395 125.422 75.9725 125.227 75.6648C125.033 75.3523 124.768 75.1132 124.432 74.9474C124.096 74.777 123.715 74.6918 123.289 74.6918C122.843 74.6918 122.455 74.7817 122.124 74.9616C121.792 75.1416 121.537 75.3996 121.357 75.7358C121.177 76.072 121.087 76.4721 121.087 76.9361H118.168C118.168 75.9844 118.383 75.1581 118.814 74.4574C119.245 73.7566 119.849 73.2145 120.625 72.831C121.402 72.4474 122.297 72.2557 123.31 72.2557C124.352 72.2557 125.258 72.4403 126.03 72.8097C126.807 73.1742 127.41 73.6809 127.841 74.3295C128.272 74.9782 128.487 75.7216 128.487 76.5597C128.487 77.1089 128.378 77.651 128.161 78.1861C127.948 78.7211 127.566 79.3153 127.017 79.9688C126.468 80.6174 125.694 81.3963 124.695 82.3054L122.571 84.3864V84.4858H128.679V87H118.31Z" fill="white"/>
</svg>
