<svg width="135" height="135" viewBox="0 0 135 135" fill="none" xmlns="http://www.w3.org/2000/svg">
<circle cx="67.5" cy="67.5" r="67.5" fill="#48CAE4"/>
<path d="M47.9849 63V48.4545H51.0602V60.4645H57.296V63H47.9849ZM62.3865 63.206C61.6905 63.206 61.0703 63.0852 60.5257 62.8438C59.9812 62.5975 59.5504 62.2353 59.2331 61.7571C58.9206 61.2741 58.7644 60.6728 58.7644 59.9531C58.7644 59.3471 58.8757 58.8381 59.0982 58.4261C59.3207 58.0142 59.6238 57.6828 60.0073 57.4318C60.3908 57.1809 60.8264 56.9915 61.3141 56.8636C61.8065 56.7358 62.3226 56.6458 62.8624 56.5938C63.4969 56.5275 64.0082 56.4659 64.3965 56.4091C64.7847 56.3475 65.0665 56.2576 65.2417 56.1392C65.4168 56.0208 65.5044 55.8456 65.5044 55.6136V55.571C65.5044 55.1212 65.3624 54.7732 65.0783 54.527C64.7989 54.2808 64.4012 54.1577 63.8851 54.1577C63.3406 54.1577 62.9074 54.2784 62.5854 54.5199C62.2634 54.7566 62.0504 55.0549 61.9462 55.4148L59.1479 55.1875C59.29 54.5246 59.5693 53.9517 59.986 53.4688C60.4026 52.9811 60.94 52.607 61.5982 52.3466C62.2611 52.0814 63.0281 51.9489 63.8993 51.9489C64.5054 51.9489 65.0854 52.0199 65.6394 52.1619C66.1981 52.304 66.6929 52.5241 67.1238 52.8224C67.5594 53.1207 67.9026 53.5043 68.1536 53.973C68.4045 54.437 68.53 54.9934 68.53 55.642V63H65.6607V61.4872H65.5755C65.4003 61.8281 65.1659 62.1288 64.8723 62.3892C64.5788 62.6449 64.226 62.8461 63.8141 62.9929C63.4022 63.1349 62.9263 63.206 62.3865 63.206ZM63.253 61.1179C63.6981 61.1179 64.0911 61.0303 64.432 60.8551C64.7729 60.6752 65.0404 60.4337 65.2346 60.1307C65.4287 59.8277 65.5257 59.4844 65.5257 59.1009V57.9432C65.431 58.0047 65.3008 58.0616 65.1351 58.1136C64.9741 58.161 64.7918 58.206 64.5882 58.2486C64.3846 58.2865 64.181 58.322 63.9775 58.3551C63.7739 58.3835 63.5892 58.4096 63.4235 58.4332C63.0684 58.4853 62.7582 58.5682 62.4931 58.6818C62.2279 58.7955 62.022 58.9493 61.8752 59.1435C61.7284 59.3329 61.655 59.5696 61.655 59.8537C61.655 60.2656 61.8042 60.5805 62.1025 60.7983C62.4055 61.0114 62.789 61.1179 63.253 61.1179ZM76.6799 52.0909V54.3636H70.1103V52.0909H76.6799ZM71.6017 49.4773H74.6273V59.6477C74.6273 59.9271 74.6699 60.1449 74.7551 60.3011C74.8404 60.4527 74.9587 60.5592 75.1103 60.6207C75.2665 60.6823 75.4464 60.7131 75.65 60.7131C75.7921 60.7131 75.9341 60.7012 76.0762 60.6776C76.2182 60.6491 76.3271 60.6278 76.4029 60.6136L76.8787 62.8651C76.7272 62.9124 76.5141 62.9669 76.2395 63.0284C75.9649 63.0947 75.6311 63.1349 75.2381 63.1491C74.5089 63.1776 73.8697 63.0805 73.3205 62.858C72.776 62.6354 72.3522 62.2898 72.0492 61.821C71.7462 61.3523 71.597 60.7604 71.6017 60.0455V49.4773ZM83.5051 63.2131C82.383 63.2131 81.4171 62.9858 80.6074 62.5312C79.8025 62.072 79.1822 61.4233 78.7466 60.5852C78.311 59.7424 78.0932 58.7457 78.0932 57.5952C78.0932 56.473 78.311 55.4882 78.7466 54.6406C79.1822 53.7931 79.7954 53.1326 80.5861 52.6591C81.3816 52.1856 82.3143 51.9489 83.3844 51.9489C84.1041 51.9489 84.7741 52.0649 85.3944 52.2969C86.0194 52.5241 86.5639 52.8674 87.0279 53.3267C87.4966 53.786 87.8612 54.3636 88.1216 55.0597C88.382 55.7509 88.5123 56.5606 88.5123 57.4886V58.3196H79.3006V56.4446H85.6642C85.6642 56.009 85.5695 55.6231 85.3801 55.2869C85.1908 54.9508 84.928 54.688 84.5918 54.4986C84.2604 54.3045 83.8745 54.2074 83.4341 54.2074C82.9748 54.2074 82.5676 54.3139 82.2125 54.527C81.8622 54.7353 81.5875 55.017 81.3887 55.3722C81.1898 55.7225 81.088 56.1132 81.0833 56.544V58.3267C81.0833 58.8665 81.1827 59.3329 81.3816 59.7259C81.5852 60.1188 81.8716 60.4219 82.2409 60.6349C82.6103 60.848 83.0482 60.9545 83.5549 60.9545C83.891 60.9545 84.1988 60.9072 84.4782 60.8125C84.7575 60.7178 84.9966 60.5758 85.1955 60.3864C85.3944 60.197 85.5459 59.965 85.65 59.6903L88.4483 59.875C88.3063 60.5473 88.0151 61.1345 87.5748 61.6364C87.1391 62.1335 86.5757 62.5218 85.8844 62.8011C85.1979 63.0758 84.4048 63.2131 83.5051 63.2131ZM8.73686 87V72.4545H14.4755C15.5787 72.4545 16.5186 72.6652 17.2951 73.0866C18.0716 73.5033 18.6635 74.0833 19.0707 74.8267C19.4826 75.5653 19.6886 76.4176 19.6886 77.3835C19.6886 78.3494 19.4802 79.2017 19.0636 79.9403C18.6469 80.679 18.0432 81.2543 17.2525 81.6662C16.4665 82.0781 15.5148 82.2841 14.3974 82.2841H10.7397V79.8196H13.9002C14.4921 79.8196 14.9798 79.7178 15.3633 79.5142C15.7515 79.3059 16.0404 79.0194 16.2298 78.6548C16.4239 78.2855 16.521 77.8617 16.521 77.3835C16.521 76.9006 16.4239 76.4792 16.2298 76.1193C16.0404 75.7547 15.7515 75.473 15.3633 75.2741C14.975 75.0705 14.4826 74.9688 13.886 74.9688H11.8121V87H8.73686ZM21.6293 87V76.0909H24.5625V77.9943H24.6761C24.875 77.3172 25.2088 76.8059 25.6776 76.4602C26.1463 76.1098 26.6861 75.9347 27.2969 75.9347C27.4484 75.9347 27.6117 75.9441 27.7869 75.9631C27.9621 75.982 28.116 76.008 28.2486 76.0412V78.7259C28.1065 78.6832 27.91 78.6454 27.6591 78.6122C27.4081 78.5791 27.1785 78.5625 26.9702 78.5625C26.5251 78.5625 26.1274 78.6596 25.777 78.8537C25.4313 79.0431 25.1567 79.3082 24.9531 79.6491C24.7543 79.9901 24.6548 80.383 24.6548 80.8281V87H21.6293ZM34.2766 87.2131C33.1545 87.2131 32.1886 86.9858 31.3789 86.5312C30.574 86.072 29.9537 85.4233 29.5181 84.5852C29.0825 83.7424 28.8647 82.7457 28.8647 81.5952C28.8647 80.473 29.0825 79.4882 29.5181 78.6406C29.9537 77.7931 30.5669 77.1326 31.3576 76.6591C32.1531 76.1856 33.0858 75.9489 34.1559 75.9489C34.8756 75.9489 35.5456 76.0649 36.1658 76.2969C36.7908 76.5241 37.3353 76.8674 37.7994 77.3267C38.2681 77.786 38.6327 78.3636 38.8931 79.0597C39.1535 79.7509 39.2837 80.5606 39.2837 81.4886V82.3196H30.0721V80.4446H36.4357C36.4357 80.009 36.341 79.6231 36.1516 79.2869C35.9622 78.9508 35.6995 78.688 35.3633 78.4986C35.0318 78.3045 34.646 78.2074 34.2056 78.2074C33.7463 78.2074 33.3391 78.3139 32.984 78.527C32.6336 78.7353 32.359 79.017 32.1602 79.3722C31.9613 79.7225 31.8595 80.1132 31.8548 80.544V82.3267C31.8548 82.8665 31.9542 83.3329 32.1531 83.7259C32.3567 84.1188 32.6431 84.4219 33.0124 84.6349C33.3817 84.848 33.8197 84.9545 34.3263 84.9545C34.6625 84.9545 34.9703 84.9072 35.2496 84.8125C35.529 84.7178 35.7681 84.5758 35.967 84.3864C36.1658 84.197 36.3174 83.965 36.4215 83.6903L39.2198 83.875C39.0778 84.5473 38.7866 85.1345 38.3462 85.6364C37.9106 86.1335 37.3472 86.5218 36.6559 86.8011C35.9693 87.0758 35.1763 87.2131 34.2766 87.2131ZM46.1871 87.2131C45.0697 87.2131 44.1085 86.9763 43.3036 86.5028C42.5034 86.0246 41.8879 85.3617 41.457 84.5142C41.0309 83.6667 40.8178 82.6913 40.8178 81.5881C40.8178 80.4706 41.0333 79.4905 41.4641 78.6477C41.8997 77.8002 42.5176 77.1397 43.3178 76.6662C44.118 76.188 45.0697 75.9489 46.1729 75.9489C47.1246 75.9489 47.958 76.1217 48.6729 76.4673C49.3879 76.813 49.9537 77.2983 50.3704 77.9233C50.7871 78.5483 51.0167 79.2822 51.0593 80.125H48.2042C48.1237 79.5805 47.9106 79.1425 47.565 78.8111C47.2241 78.4749 46.7766 78.3068 46.2227 78.3068C45.7539 78.3068 45.3443 78.4347 44.994 78.6903C44.6483 78.9413 44.3784 79.3082 44.1843 79.7912C43.9902 80.2741 43.8931 80.8589 43.8931 81.5455C43.8931 82.2415 43.9878 82.8333 44.1772 83.321C44.3713 83.8087 44.6436 84.1804 44.994 84.4361C45.3443 84.6918 45.7539 84.8196 46.2227 84.8196C46.5683 84.8196 46.8784 84.7486 47.1531 84.6065C47.4324 84.4645 47.6621 84.2585 47.842 83.9886C48.0266 83.714 48.1474 83.3849 48.2042 83.0014H51.0593C51.012 83.8348 50.7847 84.5687 50.3775 85.2031C49.975 85.8329 49.4187 86.3253 48.7085 86.6804C47.9982 87.0355 47.1578 87.2131 46.1871 87.2131ZM56.022 72.4545V87H52.9964V72.4545H56.022ZM58.4457 87V76.0909H61.4712V87H58.4457ZM59.9656 74.6847C59.5157 74.6847 59.1299 74.5355 58.8079 74.2372C58.4906 73.9342 58.332 73.572 58.332 73.1506C58.332 72.7339 58.4906 72.3764 58.8079 72.0781C59.1299 71.7751 59.5157 71.6236 59.9656 71.6236C60.4154 71.6236 60.7989 71.7751 61.1161 72.0781C61.4381 72.3764 61.5991 72.7339 61.5991 73.1506C61.5991 73.572 61.4381 73.9342 61.1161 74.2372C60.7989 74.5355 60.4154 74.6847 59.9656 74.6847ZM66.9205 80.6932V87H63.8949V76.0909H66.7784V78.0156H66.9062C67.1477 77.3812 67.5526 76.8793 68.1207 76.5099C68.6889 76.1359 69.3778 75.9489 70.1875 75.9489C70.9451 75.9489 71.6056 76.1146 72.169 76.446C72.7325 76.7775 73.1705 77.2509 73.483 77.8665C73.7955 78.4773 73.9517 79.2064 73.9517 80.054V87H70.9261V80.5938C70.9309 79.9261 70.7604 79.4053 70.4148 79.0312C70.0691 78.6525 69.5933 78.4631 68.9872 78.4631C68.58 78.4631 68.2202 78.5507 67.9077 78.7259C67.5999 78.901 67.3584 79.1567 67.1832 79.4929C67.0128 79.8243 66.9252 80.2244 66.9205 80.6932ZM76.3363 87V76.0909H79.3619V87H76.3363ZM77.8562 74.6847C77.4064 74.6847 77.0205 74.5355 76.6985 74.2372C76.3813 73.9342 76.2227 73.572 76.2227 73.1506C76.2227 72.7339 76.3813 72.3764 76.6985 72.0781C77.0205 71.7751 77.4064 71.6236 77.8562 71.6236C78.306 71.6236 78.6895 71.7751 79.0067 72.0781C79.3287 72.3764 79.4897 72.7339 79.4897 73.1506C79.4897 73.572 79.3287 73.9342 79.0067 74.2372C78.6895 74.5355 78.306 74.6847 77.8562 74.6847ZM86.7145 87.2131C85.5971 87.2131 84.6359 86.9763 83.831 86.5028C83.0308 86.0246 82.4152 85.3617 81.9844 84.5142C81.5582 83.6667 81.3452 82.6913 81.3452 81.5881C81.3452 80.4706 81.5606 79.4905 81.9915 78.6477C82.4271 77.8002 83.045 77.1397 83.8452 76.6662C84.6454 76.188 85.5971 75.9489 86.7003 75.9489C87.652 75.9489 88.4853 76.1217 89.2003 76.4673C89.9152 76.813 90.4811 77.2983 90.8977 77.9233C91.3144 78.5483 91.544 79.2822 91.5866 80.125H88.7315C88.651 79.5805 88.438 79.1425 88.0923 78.8111C87.7514 78.4749 87.304 78.3068 86.75 78.3068C86.2812 78.3068 85.8717 78.4347 85.5213 78.6903C85.1757 78.9413 84.9058 79.3082 84.7116 79.7912C84.5175 80.2741 84.4205 80.8589 84.4205 81.5455C84.4205 82.2415 84.5152 82.8333 84.7045 83.321C84.8987 83.8087 85.1709 84.1804 85.5213 84.4361C85.8717 84.6918 86.2812 84.8196 86.75 84.8196C87.0956 84.8196 87.4058 84.7486 87.6804 84.6065C87.9598 84.4645 88.1894 84.2585 88.3693 83.9886C88.554 83.714 88.6747 83.3849 88.7315 83.0014H91.5866C91.5393 83.8348 91.312 84.5687 90.9048 85.2031C90.5024 85.8329 89.946 86.3253 89.2358 86.6804C88.5256 87.0355 87.6851 87.2131 86.7145 87.2131ZM96.6346 87.206C95.9386 87.206 95.3183 87.0852 94.7738 86.8438C94.2293 86.5975 93.7984 86.2353 93.4812 85.7571C93.1687 85.2741 93.0124 84.6728 93.0124 83.9531C93.0124 83.3471 93.1237 82.8381 93.3462 82.4261C93.5688 82.0142 93.8718 81.6828 94.2553 81.4318C94.6388 81.1809 95.0745 80.9915 95.5621 80.8636C96.0546 80.7358 96.5707 80.6458 97.1104 80.5938C97.7449 80.5275 98.2563 80.4659 98.6445 80.4091C99.0328 80.3475 99.3145 80.2576 99.4897 80.1392C99.6649 80.0208 99.7525 79.8456 99.7525 79.6136V79.571C99.7525 79.1212 99.6104 78.7732 99.3263 78.527C99.047 78.2808 98.6493 78.1577 98.1332 78.1577C97.5887 78.1577 97.1554 78.2784 96.8335 78.5199C96.5115 78.7566 96.2984 79.0549 96.1942 79.4148L93.396 79.1875C93.538 78.5246 93.8174 77.9517 94.234 77.4688C94.6507 76.9811 95.1881 76.607 95.8462 76.3466C96.5091 76.0814 97.2762 75.9489 98.1474 75.9489C98.7534 75.9489 99.3335 76.0199 99.8874 76.1619C100.446 76.304 100.941 76.5241 101.372 76.8224C101.807 77.1207 102.151 77.5043 102.402 77.973C102.653 78.437 102.778 78.9934 102.778 79.642V87H99.9087V85.4872H99.8235C99.6483 85.8281 99.4139 86.1288 99.1204 86.3892C98.8268 86.6449 98.4741 86.8461 98.0621 86.9929C97.6502 87.1349 97.1744 87.206 96.6346 87.206ZM97.5011 85.1179C97.9461 85.1179 98.3391 85.0303 98.68 84.8551C99.021 84.6752 99.2885 84.4337 99.4826 84.1307C99.6767 83.8277 99.7738 83.4844 99.7738 83.1009V81.9432C99.6791 82.0047 99.5489 82.0616 99.3832 82.1136C99.2222 82.161 99.0399 82.206 98.8363 82.2486C98.6327 82.2865 98.4291 82.322 98.2255 82.3551C98.0219 82.3835 97.8372 82.4096 97.6715 82.4332C97.3164 82.4853 97.0063 82.5682 96.7411 82.6818C96.476 82.7955 96.27 82.9493 96.1232 83.1435C95.9764 83.3329 95.9031 83.5696 95.9031 83.8537C95.9031 84.2656 96.0522 84.5805 96.3505 84.7983C96.6535 85.0114 97.0371 85.1179 97.5011 85.1179ZM108.151 72.4545V87H105.125V72.4545H108.151ZM117.371 79.8267V82.2273H110.738V79.8267H117.371ZM126.249 72.4545V87H123.174V75.3736H123.089L119.758 77.4616V74.7344L123.359 72.4545H126.249Z" fill="white"/>
</svg>
