<svg width="135" height="135" viewBox="0 0 135 135" fill="none" xmlns="http://www.w3.org/2000/svg">
<circle cx="67.5" cy="67.5" r="67.5" fill="#0096C7"/>
<path d="M21.5928 76V60H27.5928C28.8219 60 29.8532 60.2292 30.6865 60.6875C31.5251 61.1458 32.1579 61.776 32.585 62.5781C33.0173 63.375 33.2334 64.2812 33.2334 65.2969C33.2334 66.3229 33.0173 67.2344 32.585 68.0313C32.1527 68.8281 31.5146 69.4557 30.6709 69.9141C29.8271 70.3672 28.7881 70.5937 27.5537 70.5937H23.5771V68.2109H27.1631C27.8818 68.2109 28.4704 68.0859 28.9287 67.8359C29.387 67.5859 29.7256 67.2422 29.9443 66.8047C30.1683 66.3672 30.2803 65.8646 30.2803 65.2969C30.2803 64.7292 30.1683 64.2292 29.9443 63.7969C29.7256 63.3646 29.3844 63.0286 28.9209 62.7891C28.4626 62.5443 27.8714 62.4219 27.1475 62.4219H24.4912V76H21.5928ZM35.626 76V64H38.3682V66H38.4932C38.7119 65.3073 39.0869 64.7734 39.6182 64.3984C40.1546 64.0182 40.7666 63.8281 41.4541 63.8281C41.6104 63.8281 41.7848 63.8359 41.9775 63.8516C42.1755 63.862 42.3395 63.8802 42.4697 63.9062V66.5078C42.3499 66.4661 42.1598 66.4297 41.8994 66.3984C41.6442 66.362 41.3968 66.3437 41.1572 66.3437C40.6416 66.3437 40.1781 66.4557 39.7666 66.6797C39.3604 66.8984 39.04 67.2031 38.8057 67.5937C38.5713 67.9844 38.4541 68.4349 38.4541 68.9453V76H35.626ZM49.0889 76.2344C47.917 76.2344 46.9014 75.9766 46.042 75.4609C45.1826 74.9453 44.516 74.224 44.042 73.2969C43.5732 72.3698 43.3389 71.2865 43.3389 70.0469C43.3389 68.8073 43.5732 67.7214 44.042 66.7891C44.516 65.8568 45.1826 65.1328 46.042 64.6172C46.9014 64.1016 47.917 63.8438 49.0889 63.8438C50.2607 63.8438 51.2764 64.1016 52.1357 64.6172C52.9951 65.1328 53.6592 65.8568 54.1279 66.7891C54.6019 67.7214 54.8389 68.8073 54.8389 70.0469C54.8389 71.2865 54.6019 72.3698 54.1279 73.2969C53.6592 74.224 52.9951 74.9453 52.1357 75.4609C51.2764 75.9766 50.2607 76.2344 49.0889 76.2344ZM49.1045 73.9687C49.7399 73.9687 50.2712 73.7943 50.6982 73.4453C51.1253 73.0911 51.443 72.6172 51.6514 72.0234C51.8649 71.4297 51.9717 70.7682 51.9717 70.0391C51.9717 69.3047 51.8649 68.6406 51.6514 68.0469C51.443 67.4479 51.1253 66.9714 50.6982 66.6172C50.2712 66.263 49.7399 66.0859 49.1045 66.0859C48.4535 66.0859 47.9118 66.263 47.4795 66.6172C47.0524 66.9714 46.7321 67.4479 46.5186 68.0469C46.3102 68.6406 46.2061 69.3047 46.2061 70.0391C46.2061 70.7682 46.3102 71.4297 46.5186 72.0234C46.7321 72.6172 47.0524 73.0911 47.4795 73.4453C47.9118 73.7943 48.4535 73.9687 49.1045 73.9687ZM61.6924 76.2109C60.7497 76.2109 59.9059 75.9688 59.1611 75.4844C58.4163 75 57.8278 74.2969 57.3955 73.375C56.9632 72.4531 56.7471 71.3333 56.7471 70.0156C56.7471 68.6823 56.9658 67.5573 57.4033 66.6406C57.846 65.7187 58.4424 65.0234 59.1924 64.5547C59.9424 64.0807 60.7783 63.8438 61.7002 63.8438C62.4033 63.8438 62.9814 63.9635 63.4346 64.2031C63.8877 64.4375 64.2471 64.7214 64.5127 65.0547C64.7783 65.3828 64.984 65.6927 65.1299 65.9844H65.2471V60H68.083V76H65.3018V74.1094H65.1299C64.984 74.401 64.7731 74.7109 64.4971 75.0391C64.221 75.362 63.8564 75.638 63.4033 75.8672C62.9502 76.0964 62.3799 76.2109 61.6924 76.2109ZM62.4814 73.8906C63.0804 73.8906 63.5908 73.7292 64.0127 73.4062C64.4346 73.0781 64.7549 72.6224 64.9736 72.0391C65.1924 71.4557 65.3018 70.776 65.3018 70C65.3018 69.224 65.1924 68.5495 64.9736 67.9766C64.7601 67.4036 64.4424 66.9583 64.0205 66.6406C63.6038 66.3229 63.0908 66.1641 62.4814 66.1641C61.8512 66.1641 61.3252 66.3281 60.9033 66.6562C60.4814 66.9844 60.1637 67.4375 59.9502 68.0156C59.7367 68.5937 59.6299 69.2552 59.6299 70C59.6299 70.75 59.7367 71.4193 59.9502 72.0078C60.1689 72.5911 60.4893 73.0521 60.9111 73.3906C61.3382 73.724 61.8617 73.8906 62.4814 73.8906ZM78.7451 70.9531V64H81.5732V76H78.8311V73.8672H78.7061C78.4352 74.5391 77.9899 75.0885 77.3701 75.5156C76.7555 75.9427 75.9977 76.1563 75.0967 76.1563C74.3102 76.1563 73.6149 75.9818 73.0107 75.6328C72.4118 75.2786 71.943 74.7656 71.6045 74.0938C71.266 73.4167 71.0967 72.599 71.0967 71.6406V64H73.9248V71.2031C73.9248 71.9635 74.1331 72.5677 74.5498 73.0156C74.9665 73.4635 75.5133 73.6875 76.1904 73.6875C76.6071 73.6875 77.0107 73.5859 77.4014 73.3828C77.792 73.1797 78.1123 72.8776 78.3623 72.4766C78.6175 72.0703 78.7451 71.5625 78.7451 70.9531ZM89.7158 76.2344C88.5179 76.2344 87.4893 75.9714 86.6299 75.4453C85.7757 74.9193 85.1169 74.1927 84.6533 73.2656C84.195 72.3333 83.9658 71.2604 83.9658 70.0469C83.9658 68.8281 84.2002 67.7526 84.6689 66.8203C85.1377 65.8828 85.7992 65.1536 86.6533 64.6328C87.5127 64.1068 88.5283 63.8438 89.7002 63.8438C90.6742 63.8438 91.5361 64.0234 92.2861 64.3828C93.0413 64.737 93.6429 65.2396 94.0908 65.8906C94.5387 66.5365 94.7939 67.2917 94.8564 68.1562H92.1533C92.0439 67.5781 91.7835 67.0964 91.3721 66.7109C90.9658 66.3203 90.4215 66.125 89.7393 66.125C89.1611 66.125 88.6533 66.2812 88.2158 66.5937C87.7783 66.901 87.4372 67.3437 87.1924 67.9219C86.9528 68.5 86.833 69.1927 86.833 70C86.833 70.8177 86.9528 71.5208 87.1924 72.1094C87.432 72.6927 87.7679 73.1432 88.2002 73.4609C88.6377 73.7734 89.1507 73.9297 89.7393 73.9297C90.1559 73.9297 90.5283 73.8516 90.8564 73.6953C91.1898 73.5339 91.4684 73.3021 91.6924 73C91.9163 72.6979 92.07 72.3307 92.1533 71.8984H94.8564C94.7887 72.7474 94.5387 73.5 94.1064 74.1562C93.6742 74.8073 93.0856 75.3177 92.3408 75.6875C91.596 76.0521 90.721 76.2344 89.7158 76.2344ZM103.171 64V66.1875H96.2725V64H103.171ZM97.9756 61.125H100.804V72.3906C100.804 72.7708 100.861 73.0625 100.976 73.2656C101.095 73.4635 101.252 73.599 101.444 73.6719C101.637 73.7448 101.851 73.7812 102.085 73.7812C102.262 73.7812 102.424 73.7682 102.569 73.7422C102.72 73.7161 102.835 73.6927 102.913 73.6719L103.39 75.8828C103.239 75.9349 103.022 75.9922 102.741 76.0547C102.465 76.1172 102.127 76.1536 101.726 76.1641C101.017 76.1849 100.379 76.0781 99.8115 75.8437C99.2438 75.6042 98.7933 75.2344 98.46 74.7344C98.1318 74.2344 97.9704 73.6094 97.9756 72.8594V61.125ZM114.849 67.1719L112.271 67.4531C112.198 67.1927 112.07 66.9479 111.888 66.7188C111.711 66.4896 111.471 66.3047 111.169 66.1641C110.867 66.0234 110.497 65.9531 110.06 65.9531C109.471 65.9531 108.976 66.0807 108.575 66.3359C108.179 66.5911 107.984 66.9219 107.989 67.3281C107.984 67.6771 108.112 67.9609 108.372 68.1797C108.638 68.3984 109.075 68.5781 109.685 68.7188L111.731 69.1562C112.867 69.401 113.711 69.7891 114.263 70.3203C114.82 70.8516 115.101 71.5469 115.106 72.4062C115.101 73.1615 114.88 73.8281 114.442 74.4062C114.01 74.9792 113.409 75.4271 112.638 75.75C111.867 76.0729 110.981 76.2344 109.981 76.2344C108.513 76.2344 107.33 75.9271 106.435 75.3125C105.539 74.6927 105.005 73.8307 104.833 72.7266L107.591 72.4609C107.716 73.0026 107.981 73.4115 108.388 73.6875C108.794 73.9635 109.323 74.1016 109.974 74.1016C110.646 74.1016 111.185 73.9635 111.591 73.6875C112.002 73.4115 112.208 73.0703 112.208 72.6641C112.208 72.3203 112.075 72.0365 111.81 71.8125C111.549 71.5885 111.143 71.4167 110.591 71.2969L108.544 70.8672C107.393 70.6276 106.541 70.224 105.989 69.6562C105.437 69.0833 105.164 68.3594 105.169 67.4844C105.164 66.7448 105.364 66.1042 105.771 65.5625C106.182 65.0156 106.752 64.5937 107.481 64.2969C108.216 63.9948 109.062 63.8438 110.021 63.8438C111.427 63.8438 112.534 64.1432 113.341 64.7422C114.153 65.3411 114.656 66.151 114.849 67.1719Z" fill="white"/>
</svg>
